<svg width="44" height="43" viewBox="0 0 44 43" fill="none" xmlns="http://www.w3.org/2000/svg">
<path d="M29.8258 7.37891C28.0851 7.38279 26.3848 7.9032 24.9401 8.87424C23.4954 9.84528 22.3714 11.2232 21.7105 12.8336C21.0491 11.2214 19.9236 9.84217 18.4768 8.87097C17.0299 7.89977 15.3271 7.38044 13.5846 7.37891C8.73677 7.37891 4.80371 12.2143 4.80371 17.0727C4.80371 27.6902 19.4557 36.3234 21.7105 36.3234C23.9654 36.3234 38.6174 27.6902 38.6174 17.0727C38.6174 12.2143 34.6843 7.37891 29.8258 7.37891Z" stroke="#666666" stroke-width="2.6695" stroke-linecap="round" stroke-linejoin="round"/>
<path d="M9.25293 17.071C9.25293 14.4745 11.4384 11.8281 13.5846 11.8281" stroke="#666666" stroke-width="2.6695" stroke-linecap="round" stroke-linejoin="round"/>
</svg>
