<svg width="44" height="44" viewBox="0 0 44 44" fill="none" xmlns="http://www.w3.org/2000/svg">
<g clip-path="url(#clip0_9744_19405)">
<path d="M17.7996 10.1836C17.3197 10.1847 16.851 10.3282 16.4527 10.5959C16.0545 10.8636 15.7447 11.2435 15.5625 11.6874C15.3799 11.243 15.0695 10.8629 14.6706 10.5952C14.2717 10.3275 13.8023 10.1842 13.3219 10.1836C12.6559 10.2406 12.0362 10.5476 11.5872 11.0428C11.1382 11.538 10.8933 12.1847 10.9016 12.8531C10.9016 15.7789 14.9414 18.1601 15.5625 18.1601C16.1836 18.1601 20.2235 15.7789 20.2235 12.8531C20.2317 12.1842 19.9862 11.5369 19.5365 11.0416C19.0868 10.5464 18.4662 10.2398 17.7996 10.1836Z" stroke="#666666" stroke-width="2.6695" stroke-linecap="round" stroke-linejoin="round"/>
<path d="M30.8503 22.7695C30.3704 22.7704 29.9016 22.9138 29.5033 23.1815C29.105 23.4492 28.7952 23.8293 28.6133 24.2733C28.4313 23.8286 28.121 23.448 27.722 23.1802C27.323 22.9124 26.8532 22.7694 26.3727 22.7695C25.7068 22.827 25.0874 23.134 24.6385 23.6291C24.1896 24.1242 23.9445 24.7708 23.9523 25.439C23.9523 28.3666 27.9922 30.746 28.6133 30.746C29.2344 30.746 33.2742 28.3666 33.2742 25.439C33.2824 24.7701 33.037 24.1229 32.5873 23.6276C32.1376 23.1323 31.5169 22.8257 30.8503 22.7695Z" stroke="#666666" stroke-width="2.6695" stroke-linecap="round" stroke-linejoin="round"/>
<path d="M28.5724 13.6159C27.8374 8.49938 22.308 4.52539 15.604 4.52539C8.39635 4.52539 2.55371 9.11515 2.55371 14.7798C2.59616 16.2238 2.97412 17.6381 3.65769 18.9107C4.34126 20.1833 5.31167 21.2793 6.49211 22.112L6.80889 27.7856L11.7635 24.5822C12.1052 24.6641 12.451 24.7359 12.801 24.7976" stroke="#666666" stroke-width="2.6695" stroke-linecap="round" stroke-linejoin="round"/>
<path d="M28.6546 16.6875C35.8623 16.6875 41.7049 21.2773 41.7049 26.9419C41.6625 28.3859 41.2845 29.8002 40.6009 31.0728C39.9173 32.3454 38.9469 33.4414 37.7665 34.2742L37.4497 39.9477L32.4951 36.7443C31.2374 37.047 29.9482 37.1993 28.6546 37.1981C21.447 37.1981 15.6025 32.6066 15.6025 26.9437C15.6025 21.2808 21.447 16.6875 28.6546 16.6875Z" stroke="#666666" stroke-width="2.6695" stroke-linecap="round" stroke-linejoin="round"/>
</g>
<defs>
<clipPath id="clip0_9744_19405">
<rect width="42.712" height="42.712" fill="white" transform="translate(0.774414 0.880859)"/>
</clipPath>
</defs>
</svg>
