<svg width="44" height="44" viewBox="0 0 44 44" fill="none" xmlns="http://www.w3.org/2000/svg">
<path d="M24.7829 10.6875C24.2484 10.6891 23.7263 10.8492 23.2828 11.1476C22.8393 11.4461 22.4942 11.8694 22.2914 12.3639C22.0882 11.8696 21.7431 11.4466 21.2996 11.1482C20.8562 10.8499 20.3343 10.6895 19.7999 10.6875C19.0555 10.7496 18.3624 11.0915 17.8601 11.6443C17.3578 12.1971 17.0837 12.9198 17.093 13.6667C17.093 16.9323 21.5991 19.5858 22.2914 19.5858C22.9837 19.5858 27.4898 16.9323 27.4898 13.6667C27.4991 12.9198 27.2251 12.1971 26.7228 11.6443C26.2205 11.0915 25.5273 10.7496 24.7829 10.6875Z" stroke="#666666" stroke-width="2.6695" stroke-linecap="round" stroke-linejoin="round"/>
<path d="M33.8577 4.90234H10.722C9.73917 4.90234 8.94238 5.69913 8.94238 6.68201V36.9363C8.94238 37.9192 9.73917 38.716 10.722 38.716H33.8577C34.8406 38.716 35.6374 37.9192 35.6374 36.9363V6.68201C35.6374 5.69913 34.8406 4.90234 33.8577 4.90234Z" stroke="#666666" stroke-width="2.6695" stroke-linecap="round" stroke-linejoin="round"/>
<path d="M29.4063 28.4844H15.1689" stroke="#666666" stroke-width="2.6695" stroke-miterlimit="10" stroke-linecap="round"/>
<path d="M25.8501 32.043H18.7314" stroke="#666666" stroke-width="2.6695" stroke-miterlimit="10" stroke-linecap="round"/>
<path d="M26.7372 24.9219H17.8389" stroke="#666666" stroke-width="2.6695" stroke-miterlimit="10" stroke-linecap="round"/>
</svg>
