<svg width="44" height="44" viewBox="0 0 44 44" fill="none" xmlns="http://www.w3.org/2000/svg">
<path d="M32.8829 22.7102C34.3297 21.8204 35.5824 20.6483 36.5663 19.2638C37.5503 17.8793 38.2453 16.3108 38.6099 14.6519C38.8353 13.0479 38.4448 11.418 37.517 10.0903C36.5891 8.76256 35.1928 7.83557 33.609 7.49588C32.4585 7.35115 31.2909 7.55023 30.2534 8.06805C29.2158 8.58587 28.3548 9.39924 27.7788 10.4056C27.4734 9.28726 26.8432 8.28456 25.968 7.5243C25.0927 6.76404 24.0117 6.28037 22.8616 6.13444C21.2445 6.06722 19.6619 6.61451 18.4318 7.66633C17.2017 8.71815 16.4153 10.1966 16.2306 11.8045C16.0773 13.1648 16.2361 14.5421 16.6951 15.8318M21.445 17.0296C20.1947 17.337 19.0637 18.0084 18.1951 18.9587C17.3265 19.9091 16.7592 21.0957 16.5652 22.3686C15.8039 21.33 14.7514 20.5408 13.5411 20.101C12.3308 19.6613 11.0172 19.5907 9.76684 19.8984C8.06523 20.4755 6.6448 21.6747 5.79056 23.2555C4.93631 24.8362 4.71144 26.6816 5.16106 28.4212C7.03683 36.0577 19.0638 39.6865 20.7207 39.2772C22.3775 38.8678 31.3542 30.0816 29.4766 22.4451C29.0684 20.6973 28.015 19.1681 26.5273 18.1639C25.0397 17.1597 23.2276 16.7546 21.4539 17.0296H21.445Z" stroke="#666666" stroke-width="2.6695" stroke-linecap="round" stroke-linejoin="round"/>
</svg>
