<svg width="44" height="44" viewBox="0 0 44 44" fill="none" xmlns="http://www.w3.org/2000/svg">
<path d="M22.1269 14.8633C21.4848 14.8649 20.8576 15.057 20.3247 15.4153C19.7918 15.7736 19.3773 16.282 19.1335 16.8761C18.8894 16.2812 18.474 15.7722 17.9401 15.4138C17.4062 15.0555 16.7778 14.8638 16.1348 14.8633C15.2432 14.9401 14.4137 15.3514 13.8128 16.0146C13.212 16.6778 12.8844 17.5438 12.8958 18.4386C12.8958 22.3539 18.3024 25.5413 19.1335 25.5413C19.9646 25.5413 25.3624 22.3557 25.3624 18.4386C25.3738 17.5444 25.0467 16.6788 24.4466 16.0157C23.8465 15.3526 23.0179 14.9409 22.1269 14.8633Z" stroke="#666666" stroke-width="2.6695" stroke-linecap="round" stroke-linejoin="round"/>
<path d="M19.1336 33.2184C26.5052 33.2184 32.4811 27.2425 32.4811 19.8709C32.4811 12.4993 26.5052 6.52344 19.1336 6.52344C11.762 6.52344 5.78613 12.4993 5.78613 19.8709C5.78613 27.2425 11.762 33.2184 19.1336 33.2184Z" stroke="#666666" stroke-width="2.6695" stroke-miterlimit="10" stroke-linecap="round"/>
<path d="M32.3458 25.6719L38.0087 31.3348C38.2567 31.5827 38.4535 31.877 38.5878 32.201C38.7221 32.525 38.7912 32.8723 38.7912 33.223C38.7912 33.5737 38.7221 33.921 38.5878 34.245C38.4535 34.569 38.2567 34.8633 38.0087 35.1112C37.7608 35.3593 37.4664 35.5561 37.1424 35.6903C36.8184 35.8246 36.4712 35.8937 36.1205 35.8937C35.7698 35.8937 35.4225 35.8246 35.0985 35.6903C34.7745 35.5561 34.4801 35.3593 34.2322 35.1112L28.5693 29.4483" stroke="#666666" stroke-width="2.6695" stroke-miterlimit="10" stroke-linecap="round"/>
</svg>
