<svg width="44" height="43" viewBox="0 0 44 43" fill="none" xmlns="http://www.w3.org/2000/svg">
<path d="M13.9111 13.5867L16.5094 10.0273H26.9063L29.5046 13.5867L21.7078 23.0207L13.9111 13.5867Z" stroke="#666666" stroke-width="2.6695" stroke-linecap="round" stroke-linejoin="round"/>
<path d="M13.2654 19.6797C11.5537 21.3574 10.3805 23.5068 9.89535 25.8539C9.41015 28.2011 9.63494 30.6395 10.541 32.8583C11.4471 35.0772 12.9935 36.9759 14.983 38.3125C16.9725 39.649 19.3149 40.3628 21.7116 40.3628C24.1084 40.3628 26.4508 39.649 28.4403 38.3125C30.4298 36.9759 31.9761 35.0772 32.8822 32.8583C33.7884 30.6395 34.0131 28.2011 33.5279 25.8539C33.0427 23.5068 31.8695 21.3574 30.1579 19.6797" stroke="#666666" stroke-width="2.6695" stroke-linecap="round" stroke-linejoin="round"/>
<path d="M8.77832 7.23047L11.4033 9.85726" stroke="#666666" stroke-width="2.6695" stroke-linecap="round" stroke-linejoin="round"/>
<path d="M21.71 2.97461V6.68699" stroke="#666666" stroke-width="2.6695" stroke-linecap="round" stroke-linejoin="round"/>
<path d="M32.0186 9.8553L34.6436 7.22852" stroke="#666666" stroke-width="2.6695" stroke-linecap="round" stroke-linejoin="round"/>
<path d="M24.3773 13.5859H13.9111" stroke="#666666" stroke-width="2.6695" stroke-linecap="round" stroke-linejoin="round"/>
</svg>
