<svg width="24" height="24" viewBox="0 0 24 24" fill="none" xmlns="http://www.w3.org/2000/svg">
<path d="M7.59375 6.70703L8.68475 8.04103L10.5938 5.70703" stroke="#E30BCD" stroke-width="1.5" stroke-linecap="round" stroke-linejoin="round"/>
<path d="M7.91406 10.707L9.00506 12.041L10.9141 9.70703" stroke="#E30BCD" stroke-width="1.5" stroke-linecap="round" stroke-linejoin="round"/>
<path d="M7.48047 14.707L8.57147 16.041L10.4805 13.707" stroke="#E30BCD" stroke-width="1.5" stroke-linecap="round" stroke-linejoin="round"/>
<path d="M11.5938 7.375H15.5938" stroke="#E30BCD" stroke-width="1.5" stroke-linecap="round" stroke-linejoin="round"/>
<path d="M11.9141 11.375H15.9141" stroke="#E30BCD" stroke-width="1.5" stroke-linecap="round" stroke-linejoin="round"/>
<path d="M11.4805 15.375H15.4805" stroke="#E30BCD" stroke-width="1.5" stroke-linecap="round" stroke-linejoin="round"/>
<path d="M17.7484 17.147C17.7824 17 17.8144 16.853 17.8484 16.705C18.6974 12.1759 18.4793 7.51119 17.2114 3.08102C17.1482 2.87558 17.0205 2.69597 16.8472 2.56881C16.6739 2.44164 16.4643 2.37369 16.2494 2.37502H5.33737C5.1832 2.37568 5.03126 2.41199 4.89343 2.48109C4.75561 2.5502 4.63563 2.65025 4.54288 2.7734C4.45012 2.89656 4.3871 3.0395 4.35874 3.19105C4.33037 3.3426 4.33744 3.49865 4.37937 3.64702C6.83337 12.213 3.98438 16.79 3.98438 19.875C3.98477 20.0881 4.03054 20.2986 4.11864 20.4926C4.20675 20.6866 4.33517 20.8596 4.49535 21C4.65553 21.1405 4.8438 21.2452 5.04763 21.3073C5.25145 21.3693 5.46615 21.3872 5.67743 21.3598C5.88871 21.3324 6.09173 21.2603 6.27297 21.1482C6.4542 21.0362 6.6095 20.8869 6.72851 20.7102C6.84753 20.5335 6.92753 20.3334 6.9632 20.1234C6.99887 19.9133 6.98938 19.6981 6.93537 19.492C6.91904 19.4297 6.91719 19.3644 6.92997 19.3013C6.94275 19.2381 6.96983 19.1788 7.00912 19.1277C7.04841 19.0766 7.09887 19.0352 7.15664 19.0067C7.21441 18.9781 7.27794 18.9632 7.34238 18.963H19.4424C19.5199 18.9631 19.5959 18.9845 19.662 19.0249C19.7282 19.0653 19.7819 19.1231 19.8174 19.192C19.9343 19.4207 19.9906 19.6756 19.9808 19.9323C19.971 20.189 19.8954 20.4389 19.7613 20.658C19.6272 20.8771 19.4391 21.0581 19.215 21.1837C18.9909 21.3092 18.7383 21.3751 18.4814 21.375H5.48137" stroke="#E30BCD" stroke-width="1.5" stroke-linecap="round" stroke-linejoin="round"/>
</svg>
