<svg width="57" height="56" viewBox="0 0 57 56" fill="none" xmlns="http://www.w3.org/2000/svg">
<path d="M17.5625 15.6062C17.5625 15.6062 28.5012 12.9182 28.5012 7.54688" stroke="#301B69" stroke-width="3" stroke-linecap="round" stroke-linejoin="round"/>
<path d="M39.4363 15.6062C39.4363 15.6062 28.5 12.9182 28.5 7.54688" stroke="#301B69" stroke-width="3" stroke-linecap="round" stroke-linejoin="round"/>
<path d="M18.2031 11.5897C18.2031 7.12133 22.8115 3.5 28.4978 3.5C34.1841 3.5 38.7925 7.12133 38.7925 11.5897" stroke="#301B69" stroke-width="3" stroke-linecap="round" stroke-linejoin="round"/>
<path d="M18.2031 11.5897C18.2031 7.12133 22.8115 3.5 28.4978 3.5C34.1841 3.5 38.7925 7.12133 38.7925 11.5897" stroke="#301B69" stroke-width="3" stroke-linecap="round" stroke-linejoin="round"/>
<path d="M42.0331 33.5287C42.1862 33.4936 42.3426 33.4748 42.4997 33.4727C43.2753 33.5416 43.9926 33.9133 44.4961 34.5072C44.9996 35.1012 45.249 35.8696 45.1901 36.646C45.2483 37.422 44.9987 38.1898 44.4952 38.7832C43.9918 39.3767 43.2749 39.748 42.4997 39.817C41.9953 39.8142 41.5049 39.6507 41.0997 39.3503C39.1117 45.8603 32.6274 52.417 28.4997 52.417C24.3721 52.417 17.8971 45.8557 15.9114 39.3503C15.5058 39.65 15.0157 39.8134 14.5114 39.817C13.7362 39.748 13.0194 39.3767 12.5159 38.7832C12.0124 38.1898 11.7628 37.422 11.8211 36.646C11.762 35.8714 12.0098 35.1046 12.5108 34.511C13.0119 33.9174 13.7262 33.5445 14.4997 33.4727C14.6568 33.4748 14.8133 33.4936 14.9664 33.5287" stroke="#301B69" stroke-width="3" stroke-linecap="round" stroke-linejoin="round"/>
<path d="M24.2031 43.5859C24.6841 44.2718 25.3297 44.8258 26.0808 45.1968C26.8318 45.5679 27.6641 45.7441 28.5011 45.7093C29.3381 45.7441 30.1704 45.5679 30.9215 45.1968C31.6725 44.8258 32.3182 44.2718 32.7991 43.5859" stroke="#301B69" stroke-width="3" stroke-linecap="round" stroke-linejoin="round"/>
<path d="M45.111 30.4524C45.2246 30.2409 45.3296 30.0215 45.426 29.7944C45.795 28.9663 45.9903 28.0713 46 27.1648C46 21.3571 38.1647 16.6484 28.5 16.6484C18.8353 16.6484 11 21.3571 11 27.1648C11.0097 28.0713 11.205 28.9663 11.574 29.7944" stroke="#301B69" stroke-width="3" stroke-linecap="round" stroke-linejoin="round"/>
<path d="M14.0898 43.2578C12.3492 44.8445 11.6624 46.0773 12.0295 46.9561C12.4098 47.8661 13.7095 47.8895 14.0898 48.8041C14.4702 49.7188 13.7702 50.9041 12.0295 52.5001" stroke="#301B69" stroke-width="3" stroke-linecap="round" stroke-linejoin="round"/>
<path d="M42.9131 43.2578C44.6538 44.8445 45.3406 46.0773 44.9735 46.9561C44.5931 47.8661 43.2935 47.8895 42.9131 48.8041C42.5328 49.7188 43.2328 50.9041 44.9735 52.5001" stroke="#301B69" stroke-width="3" stroke-linecap="round" stroke-linejoin="round"/>
<path d="M45.1084 30.4517C43.0722 30.6493 41.0072 30.7488 38.9134 30.7504C20.8301 30.7504 19.6984 23.1367 19.6984 23.1367C19.6984 23.1367 20.0788 29.1824 15.8438 29.1824" stroke="#301B69" stroke-width="3" stroke-linecap="round" stroke-linejoin="round"/>
<path d="M22.6641 33.832V36.1654" stroke="#301B69" stroke-width="3" stroke-miterlimit="10" stroke-linecap="round"/>
<path d="M34.3359 33.832V36.1654" stroke="#301B69" stroke-width="3" stroke-miterlimit="10" stroke-linecap="round"/>
</svg>
