<svg width="24" height="24" viewBox="0 0 24 24" fill="none" xmlns="http://www.w3.org/2000/svg">
<g clip-path="url(#clip0_9524_16921)">
<path d="M13.9117 18.0055C15.2063 18.4488 16.3494 18.7312 17.9919 19.2359C17.3609 27.2088 9.8217 24.0425 13.9117 18.0055ZM20.643 10.6814C20.558 8.28749 20.1363 5.14721 16.7777 5.63927C15.2033 6.05016 14.0399 7.77928 13.4928 10.7626C13.1923 12.4028 13.3671 14.7052 13.7215 16.0854C14.0452 17.058 13.9351 16.9982 14.2829 17.1829C15.6293 17.4862 16.9621 17.8219 18.3194 18.1643C19.6983 17.1906 20.8307 12.0211 20.643 10.6814ZM10.278 10.4977C10.6322 9.11734 10.8069 6.81497 10.5066 5.17487C9.95985 2.19146 8.79639 0.462061 7.22167 0.0514438C3.86302 -0.440608 3.44137 2.69962 3.35635 5.09367C3.16867 6.43312 4.30125 11.6029 5.68023 12.5765C7.03743 12.2341 8.37008 11.8986 9.71685 11.5951C10.0643 11.4105 9.95421 11.4703 10.278 10.4977ZM6.00732 13.6484C6.63808 21.6211 14.1773 18.4549 10.0874 12.4179C8.79281 12.8613 7.64974 13.1437 6.00732 13.6484Z" fill="black"/>
</g>
<defs>
<clipPath id="clip0_9524_16921">
<rect width="24" height="24" fill="white"/>
</clipPath>
</defs>
</svg>
