<svg width="34" height="34" viewBox="0 0 34 34" fill="none" xmlns="http://www.w3.org/2000/svg">
<path d="M17.0527 29.4726C24.0301 29.4726 29.6864 23.8162 29.6864 16.8388C29.6864 9.8614 24.0301 4.20508 17.0527 4.20508C10.0753 4.20508 4.41895 9.8614 4.41895 16.8388C4.41895 23.8162 10.0753 29.4726 17.0527 29.4726Z" stroke="white" stroke-width="1.6845" stroke-linecap="round" stroke-linejoin="round"/>
<path d="M12.3155 15.7854C13.1877 15.7854 13.8948 15.0783 13.8948 14.2062C13.8948 13.334 13.1877 12.627 12.3155 12.627C11.4434 12.627 10.7363 13.334 10.7363 14.2062C10.7363 15.0783 11.4434 15.7854 12.3155 15.7854Z" fill="white"/>
<path d="M21.7911 15.7854C22.6633 15.7854 23.3704 15.0783 23.3704 14.2062C23.3704 13.334 22.6633 12.627 21.7911 12.627C20.919 12.627 20.2119 13.334 20.2119 14.2062C20.2119 15.0783 20.919 15.7854 21.7911 15.7854Z" fill="white"/>
<path d="M22.526 19.998C21.9713 20.9585 21.1736 21.756 20.2131 22.3104C19.2526 22.8649 18.1631 23.1568 17.054 23.1568C15.945 23.1568 14.8554 22.8649 13.8949 22.3105C12.9344 21.756 12.1367 20.9585 11.582 19.9981" stroke="white" stroke-width="1.6845" stroke-linecap="round" stroke-linejoin="round"/>
</svg>
