<svg width="35" height="34" viewBox="0 0 35 34" fill="none" xmlns="http://www.w3.org/2000/svg">
<path d="M6.45572 23.2862C4.88607 20.6402 4.33636 17.5121 4.90982 14.4894C5.48329 11.4667 7.14048 8.75736 9.57021 6.87006C11.9999 4.98276 15.0351 4.04736 18.1057 4.23951C21.1763 4.43166 24.0711 5.73814 26.2466 7.91363C28.4221 10.0891 29.7286 12.9839 29.9208 16.0545C30.1129 19.1251 29.1775 22.1603 27.2902 24.59C25.403 27.0198 22.6936 28.677 19.6709 29.2504C16.6482 29.8239 13.5202 29.2742 10.8741 27.7046L10.8741 27.7044L6.51066 28.9511C6.33012 29.0027 6.13909 29.0051 5.95733 28.958C5.77558 28.9109 5.60973 28.8161 5.47697 28.6833C5.3442 28.5505 5.24936 28.3847 5.20227 28.2029C5.15517 28.0212 5.15753 27.8301 5.20912 27.6496L6.45582 23.2862L6.45572 23.2862Z" stroke="white" stroke-width="1.6845" stroke-linecap="round" stroke-linejoin="round"/>
<path d="M17.3224 18.4182C18.1946 18.4182 18.9016 17.7112 18.9016 16.839C18.9016 15.9668 18.1946 15.2598 17.3224 15.2598C16.4502 15.2598 15.7432 15.9668 15.7432 16.839C15.7432 17.7112 16.4502 18.4182 17.3224 18.4182Z" fill="white"/>
<path d="M11.006 18.4182C11.8782 18.4182 12.5852 17.7112 12.5852 16.839C12.5852 15.9668 11.8782 15.2598 11.006 15.2598C10.1338 15.2598 9.42676 15.9668 9.42676 16.839C9.42676 17.7112 10.1338 18.4182 11.006 18.4182Z" fill="white"/>
<path d="M23.6398 18.4182C24.5119 18.4182 25.219 17.7112 25.219 16.839C25.219 15.9668 24.5119 15.2598 23.6398 15.2598C22.7676 15.2598 22.0605 15.9668 22.0605 16.839C22.0605 17.7112 22.7676 18.4182 23.6398 18.4182Z" fill="white"/>
</svg>
