<svg width="35" height="34" viewBox="0 0 35 34" fill="none" xmlns="http://www.w3.org/2000/svg">
<path d="M17.5932 23.6824C20.5004 23.6824 22.8572 21.3256 22.8572 18.4184C22.8572 15.5111 20.5004 13.1543 17.5932 13.1543C14.6859 13.1543 12.3291 15.5111 12.3291 18.4184C12.3291 21.3256 14.6859 23.6824 17.5932 23.6824Z" stroke="white" stroke-width="1.6845" stroke-linecap="round" stroke-linejoin="round"/>
<path d="M26.542 15.2598C27.768 15.2587 28.9773 15.5436 30.0739 16.0918C31.1705 16.64 32.1241 17.4364 32.859 18.4176" stroke="white" stroke-width="1.6845" stroke-linecap="round" stroke-linejoin="round"/>
<path d="M2.32715 18.4179C3.06207 17.4366 4.01573 16.6401 5.11236 16.0919C6.20898 15.5437 7.41836 15.2587 8.64439 15.2598" stroke="white" stroke-width="1.6845" stroke-linecap="round" stroke-linejoin="round"/>
<path d="M10.0166 28.4192C10.7082 26.9987 11.7852 25.8012 13.1248 24.9635C14.4643 24.1258 16.0124 23.6816 17.5923 23.6816C19.1722 23.6816 20.7203 24.1258 22.0599 24.9635C23.3994 25.8012 24.4765 26.9986 25.168 28.4191" stroke="white" stroke-width="1.6845" stroke-linecap="round" stroke-linejoin="round"/>
<path d="M8.64406 15.2604C7.84502 15.2602 7.06252 15.0328 6.38792 14.6045C5.71333 14.1763 5.17448 13.565 4.8343 12.842C4.49413 12.119 4.36666 11.3141 4.46679 10.5214C4.56692 9.72867 4.89052 8.98078 5.39979 8.36507C5.90906 7.74936 6.58298 7.29124 7.34287 7.04421C8.10276 6.79717 8.91725 6.77142 9.69122 6.96996C10.4652 7.1685 11.1667 7.58313 11.7139 8.16544C12.261 8.74775 12.6312 9.47371 12.7812 10.2585" stroke="white" stroke-width="1.6845" stroke-linecap="round" stroke-linejoin="round"/>
<path d="M22.4043 10.2593C22.5542 9.47437 22.9244 8.74828 23.4716 8.16584C24.0187 7.5834 24.7203 7.16865 25.4944 6.97004C26.2684 6.77142 27.083 6.79714 27.843 7.04418C28.603 7.29122 29.2771 7.74938 29.7864 8.36517C30.2958 8.98096 30.6194 9.72896 30.7195 10.5218C30.8197 11.3146 30.6921 12.1196 30.3519 12.8427C30.0116 13.5658 29.4727 14.1771 28.798 14.6054C28.1232 15.0336 27.3406 15.261 26.5415 15.2611" stroke="white" stroke-width="1.6845" stroke-linecap="round" stroke-linejoin="round"/>
</svg>
