<svg width="35" height="34" viewBox="0 0 35 34" fill="none" xmlns="http://www.w3.org/2000/svg">
<path d="M17.7822 28.4197C17.7822 28.4197 4.62207 21.05 4.62207 12.1011C4.62234 10.5194 5.17039 8.98666 6.17305 7.76341C7.17571 6.54015 8.57109 5.7019 10.1219 5.39119C11.6728 5.08048 13.2834 5.31647 14.6799 6.05906C16.0764 6.80164 17.1727 8.00497 17.7822 9.46447L17.7822 9.46448C18.3918 8.00498 19.488 6.80165 20.8845 6.05906C22.281 5.31648 23.8916 5.08048 25.4425 5.39119C26.9933 5.7019 28.3887 6.54015 29.3914 7.7634C30.3941 8.98666 30.9421 10.5194 30.9424 12.1011C30.9424 21.05 17.7822 28.4197 17.7822 28.4197Z" stroke="white" stroke-width="1.6845" stroke-linecap="round" stroke-linejoin="round"/>
</svg>
