<svg width="24" height="24" viewBox="0 0 24 24" fill="none" xmlns="http://www.w3.org/2000/svg">
<path d="M9.56752 5.22656C9.29789 5.22717 9.0345 5.30779 8.81073 5.45822C8.58696 5.60865 8.41287 5.82211 8.31052 6.07156C8.20793 5.82187 8.03351 5.60827 7.80937 5.45783C7.58523 5.3074 7.32146 5.22691 7.05152 5.22656C6.6773 5.25861 6.32907 5.43109 6.07679 5.70934C5.82451 5.98759 5.68687 6.351 5.69152 6.72656C5.69152 8.37056 7.96152 9.70856 8.31052 9.70856C8.65952 9.70856 10.9295 8.37056 10.9295 6.72656C10.9341 6.35068 10.7962 5.987 10.5435 5.7087C10.2908 5.4304 9.9421 5.25813 9.56752 5.22656Z" stroke="#E30BCD" stroke-width="1.5" stroke-linecap="round" stroke-linejoin="round"/>
<path d="M16.1888 12L14.0938 14.619H17.2368L15.1417 17.238" stroke="#E30BCD" stroke-width="1.5" stroke-linecap="round" stroke-linejoin="round"/>
<path d="M15.62 7.15487C15.207 4.27987 12.1 2.04688 8.333 2.04688C4.283 2.04688 1 4.62587 1 7.80888C1.02385 8.62024 1.23623 9.41492 1.62033 10.13C2.00443 10.8451 2.54971 11.461 3.213 11.9289L3.391 15.1169L6.175 13.3169C6.367 13.3629 6.56133 13.4032 6.758 13.4379" stroke="#E30BCD" stroke-width="1.5" stroke-linecap="round" stroke-linejoin="round"/>
<path d="M15.666 8.88281C19.716 8.88281 22.999 11.4618 22.999 14.6448C22.9752 15.4562 22.7628 16.2509 22.3787 16.966C21.9946 17.681 21.4493 18.2969 20.786 18.7648L20.608 21.9528L17.824 20.1528C17.1173 20.3229 16.3929 20.4085 15.666 20.4078C11.616 20.4078 8.33203 17.8278 8.33203 14.6458C8.33203 11.4638 11.616 8.88281 15.666 8.88281Z" stroke="#E30BCD" stroke-width="1.5" stroke-linecap="round" stroke-linejoin="round"/>
</svg>
