<svg width="24" height="24" viewBox="0 0 24 24" fill="none" xmlns="http://www.w3.org/2000/svg">
<path d="M3.05371 5.74121V18.9453H20.9463V6.1377L20.1709 6.64746L12.2148 11.8857C12.1545 11.9174 12.1021 11.9431 12.0566 11.9609C12.0535 11.9619 12.0367 11.9668 12 11.9668C11.9627 11.9668 11.9461 11.9618 11.9434 11.9609C11.8977 11.943 11.8449 11.9176 11.7842 11.8857L4.05371 6.79492V6.39551L11.7266 11.4209L12 11.6006L12.2734 11.4219L20.6201 5.97168L21.6309 5.31055C21.6465 5.38835 21.6553 5.46875 21.6553 5.55273V18.4453C21.6553 18.7665 21.543 19.04 21.2939 19.2881C21.0451 19.5362 20.7703 19.6484 20.4463 19.6484H3.55371C3.23199 19.6484 2.95881 19.5361 2.71094 19.2881L2.62402 19.1943C2.43636 18.9716 2.35059 18.7269 2.35059 18.4453V5.55273C2.3506 5.46421 2.35965 5.3795 2.37695 5.29785L3.05371 5.74121ZM3.55371 4.34375H20.4463C20.7697 4.34375 21.0439 4.45692 21.293 4.70605H21.2939C21.4036 4.81571 21.4851 4.93118 21.5439 5.05273H2.46094C2.51962 4.93074 2.60139 4.81498 2.71094 4.70508H2.71191C2.95988 4.45621 3.23264 4.34378 3.55371 4.34375Z" fill="#301B69" stroke="#301B69"/>
</svg>
