<svg width="24" height="24" viewBox="0 0 24 24" fill="none" xmlns="http://www.w3.org/2000/svg">
<path d="M13.6833 9C13.3224 9.0009 12.97 9.10886 12.6706 9.31019C12.3712 9.51153 12.1382 9.79719 12.0013 10.131C11.8641 9.79672 11.6307 9.51073 11.3307 9.30936C11.0307 9.10798 10.6776 9.00031 10.3163 9C9.81526 9.04315 9.34915 9.27426 9.01155 9.64693C8.67395 10.0196 8.48985 10.5062 8.49626 11.009C8.49626 13.21 11.5343 15 12.0013 15C12.4683 15 15.5063 13.21 15.5063 11.009C15.5126 10.5057 15.3281 10.0187 14.9899 9.64597C14.6516 9.27324 14.1848 9.04243 13.6833 9Z" stroke="#E30BCD" stroke-width="1.5" stroke-linecap="round" stroke-linejoin="round"/>
<path d="M5.5 4.5L5.5 19.5C5.5 20.6046 6.39543 21.5 7.5 21.5H16.5C17.6046 21.5 18.5 20.6046 18.5 19.5V4.5C18.5 3.39543 17.6046 2.5 16.5 2.5H7.5C6.39543 2.5 5.5 3.39543 5.5 4.5Z" stroke="#E30BCD" stroke-width="1.5" stroke-linecap="round" stroke-linejoin="round"/>
<path d="M6 5.5H17" stroke="#E30BCD" stroke-width="1.5" stroke-linecap="round" stroke-linejoin="round"/>
<path d="M6 18.5H17" stroke="#E30BCD" stroke-width="1.5" stroke-linecap="round" stroke-linejoin="round"/>
</svg>
