<svg width="18" height="18" viewBox="0 0 18 18" fill="none" xmlns="http://www.w3.org/2000/svg">
<path d="M8.93139 5.60742C8.66077 5.6081 8.39645 5.68906 8.17188 5.84007C7.94732 5.99107 7.77261 6.20531 7.66989 6.45567C7.56702 6.20496 7.39197 5.99047 7.16696 5.83944C6.94195 5.68841 6.67713 5.60765 6.40614 5.60742C6.03039 5.63978 5.68081 5.81312 5.42761 6.09262C5.1744 6.37211 5.03634 6.73707 5.04114 7.11417C5.04114 8.76417 7.31964 10.1074 7.66989 10.1074C8.02014 10.1074 10.2949 8.76492 10.2949 7.11417C10.2997 6.73731 10.1619 6.37255 9.90897 6.09309C9.65608 5.81363 9.30686 5.64014 8.93139 5.60742Z" stroke="white" stroke-linecap="round" stroke-linejoin="round"/>
<path d="M7.66992 13.2949C10.7765 13.2949 13.2949 10.7765 13.2949 7.66992C13.2949 4.56332 10.7765 2.04492 7.66992 2.04492C4.56332 2.04492 2.04492 4.56332 2.04492 7.66992C2.04492 10.7765 4.56332 13.2949 7.66992 13.2949Z" stroke="white" stroke-miterlimit="10" stroke-linecap="round"/>
<path d="M13.239 11.6484L15.6255 14.0349C15.73 14.1394 15.8129 14.2635 15.8695 14.4C15.9261 14.5365 15.9552 14.6829 15.9552 14.8307C15.9552 14.9785 15.9261 15.1248 15.8695 15.2614C15.8129 15.3979 15.73 15.522 15.6255 15.6264C15.521 15.731 15.3969 15.8139 15.2604 15.8705C15.1239 15.9271 14.9775 15.9562 14.8297 15.9562C14.6819 15.9562 14.5356 15.9271 14.399 15.8705C14.2625 15.8139 14.1384 15.731 14.034 15.6264L11.6475 13.2399" stroke="white" stroke-miterlimit="10" stroke-linecap="round"/>
</svg>
