<svg width="17" height="16" viewBox="0 0 17 16" fill="none" xmlns="http://www.w3.org/2000/svg">
<path d="M7.39705 0.652805C7.9115 0.12874 8.75563 0.128765 9.2701 0.652805L10.357 1.75925C10.4006 1.80363 10.4638 1.82327 10.525 1.81198L12.0894 1.5239C12.8292 1.38765 13.5317 1.89996 13.6285 2.64597L13.814 4.07273C13.8225 4.13734 13.8639 4.19262 13.9234 4.21921L15.2974 4.82956C16.0116 5.14677 16.2921 6.01453 15.899 6.68991L15.191 7.90671C15.1571 7.96496 15.1572 8.03692 15.191 8.09519L15.899 9.31296C16.2921 9.98835 16.0116 10.8551 15.2974 11.1723L13.9234 11.7827C13.8637 11.8093 13.8225 11.8653 13.814 11.9301L13.6285 13.3569C13.5317 14.1028 12.8292 14.6152 12.0894 14.479L10.525 14.1899C10.4637 14.1786 10.4007 14.1992 10.357 14.2436L9.2701 15.3501C8.75562 15.8739 7.91144 15.8741 7.39705 15.3501L6.31111 14.2436C6.26749 14.1992 6.20438 14.1787 6.14314 14.1899L4.57869 14.479C3.83884 14.6153 3.13546 14.103 3.03865 13.3569L2.85408 11.9301C2.84566 11.8653 2.80352 11.8092 2.74373 11.7827L1.37068 11.1723C0.65659 10.8552 0.375284 9.98831 0.768144 9.31296L1.47713 8.09519C1.51088 8.03694 1.511 7.96491 1.47713 7.90671L0.768144 6.68991C0.375076 6.01453 0.656516 5.14677 1.37068 4.82956L2.74373 4.22019C2.80344 4.19366 2.84559 4.1375 2.85408 4.07273L3.03865 2.64597C3.13543 1.8999 3.83883 1.38755 4.57869 1.5239L6.14314 1.81198C6.20441 1.82328 6.26747 1.80371 6.31111 1.75925L7.39705 0.652805ZM11.0767 6.31003C10.7651 6.03767 10.2918 6.06908 10.0191 6.38034L7.92146 8.7778L6.98885 7.84421C6.69603 7.5514 6.22121 7.55156 5.9283 7.84421C5.63541 8.1371 5.63541 8.61187 5.9283 8.90476L7.4283 10.4048C7.57502 10.5514 7.77565 10.6313 7.98299 10.6245C8.19045 10.6176 8.38634 10.5248 8.52303 10.3686L11.148 7.36863C11.4207 7.0569 11.3884 6.58276 11.0767 6.31003Z" fill="#E30BCD"/>
</svg>
