<svg width="24" height="24" viewBox="0 0 24 24" fill="none" xmlns="http://www.w3.org/2000/svg">
<path d="M9.44797 10.562C8.22276 10.2917 6.94294 10.426 5.80052 10.9447C4.6581 11.4634 3.71469 12.3386 3.11184 13.439C2.50898 14.5393 2.27919 15.8055 2.45695 17.0475C2.6347 18.2895 3.2104 19.4404 4.09769 20.3275C4.98498 21.2146 6.13599 21.79 7.37805 21.9675C8.6201 22.1449 9.88622 21.9149 10.9864 21.3118C12.0866 20.7087 12.9616 19.7651 13.4801 18.6225C13.9985 17.48 14.1325 16.2001 13.862 14.975" stroke="#E30BCD" stroke-width="1.5" stroke-linecap="round" stroke-linejoin="round"/>
<path d="M14.5505 21.8935C15.7757 22.1638 17.0555 22.0295 18.1979 21.5108C19.3404 20.9921 20.2838 20.1169 20.8866 19.0165C21.4895 17.9162 21.7193 16.65 21.5415 15.408C21.3638 14.166 20.788 13.0151 19.9008 12.128C19.0135 11.2409 17.8625 10.6655 16.6204 10.488C15.3783 10.3105 14.1122 10.5406 13.012 11.1437C11.9118 11.7468 11.0368 12.6904 10.5184 13.833C9.9999 14.9755 9.8659 16.2554 10.1365 17.4805" stroke="#E30BCD" stroke-width="1.5" stroke-linecap="round" stroke-linejoin="round"/>
<path d="M14.2096 1.96875C13.8053 1.96959 13.4103 2.09044 13.0747 2.316C12.7392 2.54156 12.4781 2.86166 12.3246 3.23575C12.1707 2.86119 11.909 2.5408 11.5727 2.31523C11.2363 2.08965 10.8406 1.96906 10.4356 1.96875C9.87446 2.01745 9.35249 2.27672 8.97462 2.69448C8.59675 3.11223 8.39098 3.65751 8.39864 4.22075C8.39864 6.68775 11.7986 8.69275 12.3266 8.69275C12.8546 8.69275 16.2536 6.69275 16.2536 4.22075C16.2612 3.6564 16.0544 3.11018 15.6751 2.69225C15.2958 2.27432 14.7721 2.01578 14.2096 1.96875Z" stroke="#E30BCD" stroke-width="1.5" stroke-linecap="round" stroke-linejoin="round"/>
</svg>
