<svg width="114" height="42" viewBox="0 0 114 42" fill="none" xmlns="http://www.w3.org/2000/svg">
<g clip-path="url(#clip0_10233_11444)">
<path d="M106.23 39.1458C104.158 39.1458 102.646 38.6558 101.694 37.6758C100.714 36.7238 100.224 35.5898 100.224 34.2738C100.224 33.9098 100.238 33.6438 100.266 33.4758C100.77 33.8958 101.456 34.2738 102.324 34.6098C103.192 34.9458 104.046 35.1138 104.886 35.1138C105.782 35.1138 106.552 34.9038 107.196 34.4838C107.868 34.0918 108.204 33.4478 108.204 32.5518V11.9718C108.204 11.1878 108.456 10.5578 108.96 10.0818C109.464 9.60584 110.122 9.36784 110.934 9.36784C111.746 9.36784 112.404 9.60584 112.908 10.0818C113.412 10.5578 113.664 11.2158 113.664 12.0558V31.5438C113.664 33.3918 113.132 35.1138 112.068 36.7098C111.032 38.3338 109.086 39.1458 106.23 39.1458ZM110.976 6.63784C110.108 6.63784 109.366 6.34384 108.75 5.75584C108.162 5.13984 107.868 4.42584 107.868 3.61384C107.868 2.77384 108.162 2.05984 108.75 1.47184C109.366 0.883844 110.108 0.589844 110.976 0.589844C111.788 0.589844 112.488 0.883844 113.076 1.47184C113.692 2.05984 114 2.77384 114 3.61384C114 4.42584 113.692 5.13984 113.076 5.75584C112.488 6.34384 111.788 6.63784 110.976 6.63784Z" fill="url(#paint0_linear_10233_11444)"/>
<path d="M93.1262 9.36784C95.0862 9.36784 96.6122 9.63384 97.7042 10.1658C98.8242 10.6978 99.6642 11.7198 100.224 13.2318C100.784 14.7438 101.064 16.9418 101.064 19.8258V31.5438C101.064 33.3918 100.532 35.1138 99.4682 36.7098C98.4322 38.3338 96.4862 39.1458 93.6301 39.1458C91.5582 39.1458 90.0322 38.6558 89.0522 37.6758C88.1002 36.7238 87.6242 35.5898 87.6242 34.2738C87.6242 33.9098 87.6382 33.6438 87.6662 33.4758C88.2262 33.8958 88.9261 34.2738 89.7662 34.6098C90.6062 34.9458 91.4462 35.1138 92.2861 35.1138C93.1821 35.1138 93.9522 34.9038 94.5962 34.4838C95.2682 34.0918 95.6041 33.4478 95.6041 32.5518V29.5278L91.6982 29.6118C86.4062 29.6118 83.7602 26.2798 83.7602 19.6158C83.7602 16.7318 84.2221 14.5338 85.1461 13.0218C86.0702 11.5098 87.1901 10.5298 88.5061 10.0818C89.8502 9.60584 91.3902 9.36784 93.1262 9.36784ZM89.2202 19.3638C89.2202 21.0158 89.3882 22.3878 89.7242 23.4798C90.0882 24.5438 90.7741 25.0758 91.7822 25.0758H95.6041V16.2978C95.6041 15.4298 95.2962 14.7998 94.6802 14.4078C94.0922 14.0158 93.3922 13.8198 92.5802 13.8198C91.3202 13.8198 90.4381 14.2818 89.9342 15.2058C89.4582 16.1298 89.2202 17.5158 89.2202 19.3638Z" fill="url(#paint1_linear_10233_11444)"/>
<path d="M77.8647 29.5278C76.9127 29.5278 76.2127 29.2478 75.7647 28.6878C75.3447 28.1278 75.1347 27.4558 75.1347 26.6718V7.98184C75.1347 6.86184 74.9667 6.07784 74.6307 5.62984C74.2947 5.18184 73.9867 4.90184 73.7067 4.78984C73.4267 4.67784 73.2587 4.60784 73.2027 4.57984C73.2027 4.29984 73.3147 3.93584 73.5387 3.48784C73.7907 3.03984 74.1687 2.64784 74.6727 2.31184C75.1767 1.97584 75.8067 1.80784 76.5627 1.80784C77.7667 1.80784 78.7327 2.28384 79.4607 3.23584C80.2167 4.18784 80.5947 5.39184 80.5947 6.84784V26.7558C80.5947 27.5118 80.3707 28.1698 79.9227 28.7298C79.5027 29.2618 78.8167 29.5278 77.8647 29.5278Z" fill="url(#paint2_linear_10233_11444)"/>
<path d="M60.185 9.36784C61.669 9.36784 63.167 9.77384 64.679 10.5858C66.219 11.3698 67.493 12.5178 68.501 14.0298C69.537 15.5418 70.055 17.3198 70.055 19.3638C70.055 20.6798 69.831 22.1218 69.383 23.6898C68.935 25.2298 68.109 26.5878 66.905 27.7638C65.701 28.9398 64.063 29.5278 61.991 29.5278H52.037C52.037 32.0198 52.359 34.0918 53.003 35.7438C53.675 37.3958 54.417 38.4878 55.229 39.0198C55.117 39.4398 54.809 39.8178 54.305 40.1538C53.829 40.5178 53.199 40.6998 52.415 40.6998C50.623 40.6998 49.335 39.8458 48.551 38.1378C47.795 36.4578 47.417 34.5958 47.417 32.5518C47.417 30.2838 47.837 28.4778 48.677 27.1338C49.517 25.7618 50.833 25.0758 52.625 25.0758H61.529C61.921 25.0758 62.355 24.8378 62.831 24.3618C63.335 23.8578 63.755 23.1858 64.091 22.3458C64.427 21.4778 64.595 20.5538 64.595 19.5738C64.595 17.5298 63.895 16.0458 62.495 15.1218C61.095 14.1978 59.499 13.7358 57.707 13.7358H53.591C52.723 13.7358 51.981 13.5118 51.365 13.0638C50.777 12.6158 50.329 12.0558 50.021 11.3838C49.713 10.6838 49.559 10.0118 49.559 9.36784C49.559 8.83584 49.657 8.44384 49.853 8.19184C50.077 7.91184 50.329 7.78584 50.609 7.81384C50.805 8.23384 51.309 8.62584 52.121 8.98984C52.933 9.32584 53.997 9.49384 55.313 9.49384L58.211 9.40984L60.185 9.36784ZM60.605 37.5918C59.737 37.5918 58.995 37.2838 58.379 36.6678C57.791 36.0798 57.497 35.3798 57.497 34.5678C57.497 33.7278 57.791 33.0138 58.379 32.4258C58.995 31.8378 59.737 31.5438 60.605 31.5438C61.417 31.5438 62.117 31.8378 62.705 32.4258C63.321 33.0138 63.629 33.7278 63.629 34.5678C63.629 35.3798 63.321 36.0798 62.705 36.6678C62.117 37.2838 61.417 37.5918 60.605 37.5918Z" fill="url(#paint3_linear_10233_11444)"/>
<path d="M32.7016 29.5278C31.7496 29.5278 31.0496 29.2478 30.6016 28.6878C30.1816 28.1278 29.9716 27.4558 29.9716 26.6718V7.98184C29.9716 6.86184 29.8036 6.07784 29.4676 5.62984C29.1316 5.18184 28.8236 4.90184 28.5436 4.78984C28.2636 4.67784 28.0956 4.60784 28.0396 4.57984C28.0396 4.29984 28.1516 3.93584 28.3756 3.48784C28.6276 3.03984 29.0056 2.64784 29.5096 2.31184C30.0136 1.97584 30.6436 1.80784 31.3996 1.80784C32.6036 1.80784 33.5696 2.28384 34.2976 3.23584C35.0536 4.18784 35.4316 5.39184 35.4316 6.84784V26.7558C35.4316 27.5118 35.2076 28.1698 34.7596 28.7298C34.3396 29.2618 33.6536 29.5278 32.7016 29.5278ZM29.3836 41.4138C29.0756 41.3578 28.8096 41.1758 28.5856 40.8678C28.3616 40.5878 28.2496 40.2938 28.2496 39.9858C28.2496 39.5658 28.4316 39.2018 28.7956 38.8938C29.1596 38.6138 29.7196 38.4738 30.4756 38.4738C30.0276 38.2778 29.6216 37.9278 29.2576 37.4238C28.9216 36.9198 28.7536 36.3458 28.7536 35.7018C28.7536 35.0858 28.9076 34.4558 29.2156 33.8118C29.5516 33.1958 30.0556 32.6778 30.7276 32.2578C31.4276 31.8378 32.2816 31.6278 33.2896 31.6278C34.1576 31.6278 34.8436 31.7958 35.3476 32.1318C35.8516 32.4958 36.1036 33.0418 36.1036 33.7698C36.1036 34.7218 35.6696 35.1978 34.8016 35.1978C34.4936 35.1978 34.1156 35.1138 33.6676 34.9458C33.6956 34.5538 33.6116 34.1898 33.4156 33.8538C33.2476 33.5178 32.9676 33.3498 32.5756 33.3498C32.3516 33.5738 32.1556 33.8538 31.9876 34.1898C31.8196 34.5538 31.7356 34.9178 31.7356 35.2818C31.7356 35.9538 32.0016 36.5558 32.5336 37.0878C33.0656 37.6198 33.7376 37.8858 34.5496 37.8858C34.8016 37.8858 35.0956 37.8438 35.4316 37.7598C35.7676 37.7038 36.0196 37.6758 36.1876 37.6758C36.4956 37.6758 36.7196 37.7878 36.8596 38.0118C37.0276 38.2638 37.1116 38.5438 37.1116 38.8518C37.1116 39.1598 37.0416 39.4258 36.9016 39.6498C36.7616 39.8738 36.5796 39.9858 36.3556 39.9858C35.3476 39.9858 33.9336 40.0978 32.1136 40.3218C30.2936 40.5458 29.3836 40.9098 29.3836 41.4138Z" fill="#E30BCD"/>
<path d="M13.2133 39.4398C9.12528 39.4398 6.00328 38.4178 3.84728 36.3738C1.69128 34.3298 0.613281 31.4178 0.613281 27.6378C0.613281 25.4818 0.991281 23.6198 1.74728 22.0518C2.53128 20.4838 3.86128 19.6998 5.73728 19.6998C6.46528 19.6998 7.12328 19.8258 7.71128 20.0778C8.32728 20.3018 8.77528 20.5538 9.05528 20.8338C8.29928 21.3658 7.61328 22.2758 6.99728 23.5638C6.40928 24.8238 6.11528 26.2938 6.11528 27.9738C6.11528 30.2418 6.75928 31.9778 8.04728 33.1818C9.33528 34.4138 11.0433 35.0298 13.1713 35.0298C15.4113 35.0298 17.0073 34.4138 17.9593 33.1818C18.9393 31.9498 19.4293 30.4938 19.4293 28.8138V12.1398C19.4293 11.3838 19.6393 10.7398 20.0593 10.2078C20.5073 9.64784 21.2073 9.36784 22.1593 9.36784C23.1113 9.36784 23.7973 9.64784 24.2173 10.2078C24.6653 10.7678 24.8893 11.4398 24.8893 12.2238V28.0998C24.8893 35.6598 20.9973 39.4398 13.2133 39.4398ZM12.7933 9.36784C11.9253 9.36784 11.1833 9.07384 10.5673 8.48584C9.97928 7.86984 9.68528 7.15584 9.68528 6.34384C9.68528 5.50384 9.97928 4.78984 10.5673 4.20184C11.1833 3.61384 11.9253 3.31984 12.7933 3.31984C13.6053 3.31984 14.3053 3.61384 14.8933 4.20184C15.5093 4.78984 15.8173 5.50384 15.8173 6.34384C15.8173 7.15584 15.5093 7.86984 14.8933 8.48584C14.3053 9.07384 13.6053 9.36784 12.7933 9.36784Z" fill="#E30BCD"/>
</g>
<defs>
<linearGradient id="paint0_linear_10233_11444" x1="48.1072" y1="15.1248" x2="47.7346" y2="41.168" gradientUnits="userSpaceOnUse">
<stop stop-color="#271850"/>
<stop offset="1" stop-color="#301B69"/>
</linearGradient>
<linearGradient id="paint1_linear_10233_11444" x1="48.1072" y1="15.1248" x2="47.7346" y2="41.168" gradientUnits="userSpaceOnUse">
<stop stop-color="#271850"/>
<stop offset="1" stop-color="#301B69"/>
</linearGradient>
<linearGradient id="paint2_linear_10233_11444" x1="48.1072" y1="15.1248" x2="47.7346" y2="41.168" gradientUnits="userSpaceOnUse">
<stop stop-color="#271850"/>
<stop offset="1" stop-color="#301B69"/>
</linearGradient>
<linearGradient id="paint3_linear_10233_11444" x1="48.1072" y1="15.1248" x2="47.7346" y2="41.168" gradientUnits="userSpaceOnUse">
<stop stop-color="#271850"/>
<stop offset="1" stop-color="#301B69"/>
</linearGradient>
<clipPath id="clip0_10233_11444">
<rect width="113.387" height="40.8248" fill="white" transform="translate(0.612305 0.587891)"/>
</clipPath>
</defs>
</svg>
