<svg width="100" height="32" viewBox="0 0 100 32" fill="none" xmlns="http://www.w3.org/2000/svg">
<path d="M85.6301 24.9647V8.56735H88.8471V11.9405L88.2849 12.3153C88.4931 11.5866 88.8991 10.9202 89.503 10.3164C90.1068 9.69174 90.8252 9.19201 91.6581 8.81722C92.491 8.4216 93.3447 8.22379 94.2192 8.22379C95.4685 8.22379 96.5096 8.47365 97.3425 8.97338C98.1754 9.45229 98.8 10.1915 99.2165 11.1909C99.6329 12.1904 99.8411 13.4501 99.8411 14.9701V24.9647H96.6241V15.1888C96.6241 14.2518 96.4992 13.4814 96.2493 12.8775C95.9995 12.2529 95.6143 11.8052 95.0937 11.5345C94.5732 11.243 93.9277 11.1181 93.1573 11.1597C92.5326 11.1597 91.96 11.2638 91.4394 11.472C90.9189 11.6594 90.4608 11.9301 90.0652 12.2841C89.6904 12.6381 89.3885 13.0545 89.1594 13.5334C88.9512 13.9915 88.8471 14.4912 88.8471 15.0326V24.9647H87.2542C86.9835 24.9647 86.7128 24.9647 86.4421 24.9647C86.1715 24.9647 85.9008 24.9647 85.6301 24.9647Z" fill="#E30BCD"/>
<path d="M71.3386 24.9662V21.8429H74.868V6.22631H71.3386V3.10299H81.7705V6.22631H78.2412V21.8429H81.7705V24.9662H71.3386Z" fill="#E30BCD"/>
<path d="M61.4103 31.1184L60.1923 28.651C61.0043 28.651 61.6706 28.5052 62.1912 28.2137C62.7325 27.943 63.1386 27.5266 63.4093 26.9644C63.6799 26.423 63.8153 25.7463 63.8153 24.9343V8.56811H67.0323V25.7151C67.0323 26.777 66.7928 27.714 66.3139 28.5261C65.8559 29.3381 65.2 29.9732 64.3463 30.4313C63.5134 30.8894 62.5347 31.1184 61.4103 31.1184ZM65.5019 4.94507C64.8148 4.94507 64.2838 4.76808 63.909 4.41411C63.5342 4.06013 63.3468 3.5604 63.3468 2.91492C63.3468 2.31108 63.5342 1.82176 63.909 1.44696C64.3046 1.07216 64.8356 0.884766 65.5019 0.884766C66.189 0.884766 66.72 1.06175 67.0948 1.41573C67.4696 1.7697 67.657 2.26943 67.657 2.91492C67.657 3.51876 67.4592 4.00808 67.0635 4.38287C66.6887 4.75767 66.1682 4.94507 65.5019 4.94507Z" fill="#301B69"/>
<path d="M50.547 25.2771C49.1936 25.2771 47.9546 24.9023 46.8302 24.1527C45.7267 23.4031 44.8417 22.3828 44.1754 21.0918C43.5091 19.8009 43.176 18.3433 43.176 16.7192C43.176 15.0742 43.5091 13.6167 44.1754 12.3466C44.8626 11.0556 45.7787 10.0457 46.9239 9.31695C48.09 8.58817 49.3914 8.22379 50.8281 8.22379C51.6818 8.22379 52.4626 8.34872 53.1706 8.59858C53.8785 8.84845 54.4928 9.20243 55.0133 9.66051C55.5547 10.0978 55.992 10.6079 56.3251 11.1909C56.6791 11.7739 56.8977 12.3986 56.981 13.0649L56.2626 12.8151V8.56735H59.5109V24.9647H56.2626V21.0606L57.0122 20.842C56.8873 21.4042 56.627 21.9559 56.2314 22.4973C55.8566 23.0179 55.3673 23.4864 54.7635 23.9028C54.1804 24.3192 53.5245 24.6524 52.7958 24.9023C52.0878 25.1521 51.3382 25.2771 50.547 25.2771ZM51.3903 22.3099C52.3689 22.3099 53.233 22.0705 53.9826 21.5916C54.7322 21.1126 55.3152 20.4568 55.7317 19.6239C56.1689 18.7702 56.3876 17.8019 56.3876 16.7192C56.3876 15.6573 56.1689 14.7099 55.7317 13.877C55.3152 13.0441 54.7322 12.3882 53.9826 11.9093C53.233 11.4304 52.3689 11.1909 51.3903 11.1909C50.4325 11.1909 49.5788 11.4304 48.8292 11.9093C48.1004 12.3882 47.5174 13.0441 47.0801 13.877C46.6637 14.7099 46.4554 15.6573 46.4554 16.7192C46.4554 17.8019 46.6637 18.7702 47.0801 19.6239C47.5174 20.4568 48.1004 21.1126 48.8292 21.5916C49.5788 22.0705 50.4325 22.3099 51.3903 22.3099Z" fill="#301B69"/>
<path d="M24.3692 24.9659L18.7785 8.5685L22.0267 8.53727L26.0246 20.8119L25.3062 20.7494L29.6476 11.1609H31.5841L35.9567 20.7806L35.1134 20.8431L39.1425 8.5685H42.3907L36.8625 24.9659H34.6449L30.0849 14.534L30.8032 14.6277L26.5555 24.9659H24.3692Z" fill="#301B69"/>
<path d="M0 24.9662V22.4988L12.462 5.82028L12.9305 6.35124H0.812061V3.10299H16.6472V5.53918L4.2477 22.2489L3.74797 21.7179H16.9908V24.9662H0Z" fill="#301B69"/>
</svg>
