<svg width="57" height="56" viewBox="0 0 57 56" fill="none" xmlns="http://www.w3.org/2000/svg">
<path d="M25.4688 36.6949C26.9835 37.2985 28.6497 37.4106 30.2317 37.0154C31.8137 36.6201 33.2313 35.7374 34.2841 34.4922" stroke="#301B69" stroke-width="3" stroke-linecap="round" stroke-linejoin="round"/>
<path d="M33.8034 44.8242L28.4997 46.9242L23.1961 44.8242C21.9034 44.8242 21.9034 52.5009 23.1961 52.5009L28.4997 50.4009L33.8034 52.5009C35.0961 52.5009 35.0961 44.8242 33.8034 44.8242Z" stroke="#301B69" stroke-width="3" stroke-linecap="round" stroke-linejoin="round"/>
<path d="M44.7889 19.0036C40.2185 20.2653 35.3821 20.1884 30.8542 18.7821C26.3263 17.3758 22.2973 14.6992 19.2459 11.0703C19.2459 11.0703 20.3355 18.1986 16.0469 18.81" stroke="#301B69" stroke-width="3" stroke-linecap="round" stroke-linejoin="round"/>
<path d="M45.6243 18.459C44.3176 8.16667 37.1473 3.5 28.4976 3.5C19.7709 3.5 12.5493 8.24833 11.3359 18.7413" stroke="#301B69" stroke-width="3" stroke-linecap="round" stroke-linejoin="round"/>
<path d="M36.3008 41.9698C39.823 38.9641 42.3123 34.9281 43.4174 30.4315C43.8837 30.8208 44.4691 31.039 45.0764 31.0498C46.0403 30.9094 46.9118 30.3998 47.507 29.6287C48.1022 28.8577 48.3744 27.8855 48.2661 26.9175C48.3742 25.9481 48.1007 24.9747 47.5036 24.2034C46.9065 23.4321 46.0327 22.9234 45.0671 22.7852C44.8799 22.7881 44.6935 22.8124 44.5118 22.8575" stroke="#301B69" stroke-width="3" stroke-linecap="round" stroke-linejoin="round"/>
<path d="M12.4777 22.8668C12.2993 22.8192 12.1162 22.7918 11.9317 22.7852C10.9678 22.9256 10.0963 23.4352 9.50113 24.2062C8.90597 24.9773 8.63377 25.9495 8.74202 26.9175C8.63377 27.8855 8.90597 28.8577 9.50113 29.6287C10.0963 30.3998 10.9678 30.9094 11.9317 31.0498C12.5395 31.0393 13.1252 30.8202 13.5907 30.4292C14.7059 34.9868 17.2485 39.0688 20.8474 42.0795" stroke="#301B69" stroke-width="3" stroke-linecap="round" stroke-linejoin="round"/>
<path d="M22.6641 24.5V26.8333" stroke="#301B69" stroke-width="3" stroke-miterlimit="10" stroke-linecap="round"/>
<path d="M34.3359 24.5V26.8333" stroke="#301B69" stroke-width="3" stroke-miterlimit="10" stroke-linecap="round"/>
</svg>
