<svg width="32" height="32" viewBox="0 0 32 32" fill="none" xmlns="http://www.w3.org/2000/svg">
<path d="M12.7541 6.96875C12.3946 6.96956 12.0434 7.07706 11.745 7.27763C11.4467 7.4782 11.2146 7.76281 11.0781 8.09542C10.9413 7.7625 10.7087 7.47769 10.4099 7.27711C10.111 7.07653 9.75935 6.96921 9.39942 6.96875C8.90046 7.01148 8.43615 7.24145 8.09978 7.61245C7.7634 7.98345 7.57989 8.468 7.58609 8.96875C7.58609 11.1608 10.6128 12.9447 11.0781 12.9447C11.5434 12.9447 14.5701 11.1608 14.5701 8.96875C14.5762 8.46758 14.3924 7.98267 14.0554 7.6116C13.7185 7.24053 13.2535 7.01084 12.7541 6.96875Z" stroke="url(#paint0_linear_9524_15951)" stroke-width="1.5" stroke-linecap="round" stroke-linejoin="round"/>
<path d="M22.5353 16.3984C22.1758 16.3991 21.8245 16.5065 21.5261 16.7071C21.2277 16.9077 20.9956 17.1924 20.8593 17.5251C20.723 17.1919 20.4905 16.9068 20.1916 16.7061C19.8926 16.5055 19.5407 16.3984 19.1807 16.3984C18.6818 16.4415 18.2177 16.6715 17.8814 17.0425C17.5451 17.4134 17.3614 17.8978 17.3673 18.3984C17.3673 20.5918 20.394 22.3744 20.8593 22.3744C21.3247 22.3744 24.3513 20.5918 24.3513 18.3984C24.3575 17.8973 24.1736 17.4124 23.8367 17.0413C23.4997 16.6702 23.0348 16.4405 22.5353 16.3984Z" stroke="url(#paint1_linear_9524_15951)" stroke-width="1.5" stroke-linecap="round" stroke-linejoin="round"/>
<path d="M20.8293 9.54504C20.2786 5.71171 16.1359 2.73438 11.1133 2.73438C5.71327 2.73438 1.33594 6.17304 1.33594 10.417C1.36774 11.4989 1.65091 12.5584 2.16305 13.5119C2.67518 14.4653 3.40221 15.2865 4.2866 15.9104L4.52394 20.161L8.23594 17.761C8.49194 17.8224 8.75105 17.8762 9.01327 17.9224" stroke="url(#paint2_linear_9524_15951)" stroke-width="1.5" stroke-linecap="round" stroke-linejoin="round"/>
<path d="M20.888 11.8438C26.288 11.8438 30.6654 15.2824 30.6654 19.5264C30.6336 20.6082 30.3504 21.6678 29.8383 22.6213C29.3261 23.5747 28.5991 24.3959 27.7147 25.0198L27.4774 29.2704L23.7654 26.8704C22.8231 27.0972 21.8572 27.2113 20.888 27.2104C15.488 27.2104 11.1094 23.7704 11.1094 19.5278C11.1094 15.2851 15.488 11.8438 20.888 11.8438Z" stroke="url(#paint3_linear_9524_15951)" stroke-width="1.5" stroke-linecap="round" stroke-linejoin="round"/>
<defs>
<linearGradient id="paint0_linear_9524_15951" x1="12.0744" y1="5.72881" x2="8.99943" y2="15.0091" gradientUnits="userSpaceOnUse">
<stop stop-color="#F5E6FF"/>
<stop offset="1" stop-color="#FFF4EA"/>
</linearGradient>
<linearGradient id="paint1_linear_9524_15951" x1="21.8556" y1="15.1585" x2="18.7807" y2="24.4388" gradientUnits="userSpaceOnUse">
<stop stop-color="#F5E6FF"/>
<stop offset="1" stop-color="#FFF4EA"/>
</linearGradient>
<linearGradient id="paint2_linear_9524_15951" x1="13.8633" y1="-0.881425" x2="4.57869" y2="25.9378" gradientUnits="userSpaceOnUse">
<stop stop-color="#F5E6FF"/>
<stop offset="1" stop-color="#FFF4EA"/>
</linearGradient>
<linearGradient id="paint3_linear_9524_15951" x1="23.677" y1="8.22795" x2="14.4158" y2="35.0655" gradientUnits="userSpaceOnUse">
<stop stop-color="#F5E6FF"/>
<stop offset="1" stop-color="#FFF4EA"/>
</linearGradient>
</defs>
</svg>
