<svg width="11" height="11" viewBox="0 0 11 11" fill="none" xmlns="http://www.w3.org/2000/svg">
<path d="M9.49848 5.03979L8.3253 4.70453C7.79698 4.55559 7.31574 4.27355 6.9276 3.88542C6.53946 3.49728 6.25743 3.01603 6.10848 2.48772L5.77323 1.31454C5.75637 1.27349 5.72768 1.23839 5.69083 1.21368C5.65397 1.18897 5.61059 1.17578 5.56622 1.17578C5.52185 1.17578 5.47848 1.18897 5.44162 1.21368C5.40476 1.23839 5.37608 1.27349 5.35922 1.31454L5.02396 2.48772C4.87501 3.01603 4.59298 3.49728 4.20484 3.88542C3.81671 4.27355 3.33546 4.55559 2.80714 4.70453L1.63397 5.03979C1.58892 5.05257 1.54927 5.0797 1.52104 5.11706C1.49281 5.15442 1.47754 5.19997 1.47754 5.24679C1.47754 5.29362 1.49281 5.33917 1.52104 5.37653C1.54927 5.41388 1.58892 5.44101 1.63397 5.4538L2.80714 5.78906C3.33546 5.938 3.81671 6.22004 4.20484 6.60817C4.59298 6.99631 4.87501 7.47756 5.02396 8.00587L5.35922 9.17905C5.372 9.2241 5.39913 9.26374 5.43649 9.29197C5.47385 9.3202 5.5194 9.33548 5.56622 9.33548C5.61305 9.33548 5.65859 9.3202 5.69595 9.29197C5.73331 9.26374 5.76044 9.2241 5.77323 9.17905L6.10848 8.00587C6.25743 7.47756 6.53946 6.99631 6.9276 6.60817C7.31574 6.22004 7.79698 5.938 8.3253 5.78906L9.49848 5.4538C9.54352 5.44101 9.58317 5.41388 9.6114 5.37653C9.63963 5.33917 9.6549 5.29362 9.6549 5.24679C9.6549 5.19997 9.63963 5.15442 9.6114 5.11706C9.58317 5.0797 9.54352 5.05257 9.49848 5.03979Z" fill="#301B69"/>
</svg>
