<svg width="600" height="596" viewBox="0 0 600 596" fill="none" xmlns="http://www.w3.org/2000/svg">
<path d="M379.978 324.72V286.618H387.453V294.456L386.147 295.327C386.631 293.633 387.574 292.085 388.977 290.682C390.38 289.23 392.05 288.069 393.985 287.198C395.92 286.279 397.904 285.819 399.936 285.819C402.839 285.819 405.259 286.4 407.194 287.561C409.129 288.674 410.581 290.392 411.548 292.714C412.516 295.036 413 297.964 413 301.496V324.72H405.525V302.004C405.525 299.826 405.234 298.036 404.654 296.633C404.073 295.182 403.178 294.141 401.968 293.512C400.759 292.835 399.259 292.545 397.469 292.641C396.017 292.641 394.687 292.883 393.477 293.367C392.267 293.803 391.203 294.432 390.284 295.254C389.413 296.077 388.711 297.044 388.179 298.157C387.695 299.222 387.453 300.383 387.453 301.641V324.72H383.752C383.123 324.72 382.494 324.72 381.865 324.72C381.236 324.72 380.607 324.72 379.978 324.72Z" fill="#E30BCD"/>
<path d="M346.769 324.723V317.466H354.97V281.178H346.769V273.92H371.009V281.178H362.808V317.466H371.009V324.723H346.769Z" fill="#E30BCD"/>
<path d="M323.699 339.019L320.868 333.286C322.755 333.286 324.303 332.947 325.513 332.27C326.771 331.641 327.715 330.673 328.344 329.367C328.973 328.109 329.287 326.536 329.287 324.649V286.619H336.762V326.464C336.762 328.931 336.206 331.108 335.093 332.995C334.029 334.882 332.505 336.358 330.521 337.423C328.585 338.487 326.311 339.019 323.699 339.019ZM333.206 278.201C331.609 278.201 330.376 277.789 329.505 276.967C328.634 276.144 328.198 274.983 328.198 273.483C328.198 272.08 328.634 270.943 329.505 270.072C330.424 269.201 331.658 268.766 333.206 268.766C334.803 268.766 336.037 269.177 336.908 269.999C337.778 270.822 338.214 271.983 338.214 273.483C338.214 274.886 337.754 276.023 336.835 276.894C335.964 277.765 334.754 278.201 333.206 278.201Z" fill="#301B69"/>
<path d="M298.456 325.446C295.311 325.446 292.432 324.575 289.819 322.833C287.255 321.091 285.198 318.72 283.65 315.721C282.102 312.721 281.328 309.334 281.328 305.56C281.328 301.738 282.102 298.351 283.65 295.399C285.247 292.399 287.376 290.053 290.037 288.359C292.746 286.666 295.77 285.819 299.109 285.819C301.093 285.819 302.907 286.11 304.552 286.69C306.197 287.271 307.624 288.093 308.834 289.158C310.092 290.174 311.108 291.359 311.882 292.714C312.705 294.069 313.213 295.52 313.406 297.069L311.737 296.488V286.618H319.285V324.72H311.737V315.648L313.479 315.14C313.189 316.446 312.584 317.729 311.664 318.987C310.794 320.196 309.657 321.285 308.253 322.252C306.899 323.22 305.375 323.994 303.681 324.575C302.036 325.155 300.294 325.446 298.456 325.446ZM300.415 318.551C302.689 318.551 304.697 317.995 306.439 316.882C308.181 315.769 309.536 314.245 310.503 312.31C311.519 310.326 312.027 308.076 312.027 305.56C312.027 303.092 311.519 300.891 310.503 298.956C309.536 297.02 308.181 295.496 306.439 294.383C304.697 293.27 302.689 292.714 300.415 292.714C298.189 292.714 296.206 293.27 294.464 294.383C292.77 295.496 291.416 297.02 290.4 298.956C289.432 300.891 288.948 303.092 288.948 305.56C288.948 308.076 289.432 310.326 290.4 312.31C291.416 314.245 292.77 315.769 294.464 316.882C296.206 317.995 298.189 318.551 300.415 318.551Z" fill="#301B69"/>
<path d="M237.627 324.723L224.635 286.62L232.183 286.548L241.473 315.07L239.804 314.925L249.892 292.644H254.392L264.552 314.998L262.593 315.143L271.955 286.62H279.503L266.657 324.723H261.504L250.908 300.482L252.577 300.7L242.707 324.723H237.627Z" fill="#301B69"/>
<path d="M181 324.723V318.99L209.958 280.234L211.047 281.468H182.887V273.92H219.683V279.581L190.87 318.409L189.709 317.175H220.481V324.723H181Z" fill="#301B69"/>
<path d="M367.428 149.395L368.974 161.91" stroke="#990080" strokeWidth="3.45833" strokeLinecap="round" strokeLinejoin="round"/>
<path d="M380.828 200.789L387.108 213.087" stroke="#990080" strokeWidth="3.45833" strokeLinecap="round" strokeLinejoin="round"/>
<path d="M380.301 190.742L398.111 207.318" stroke="#990080" strokeWidth="3.45833" strokeLinecap="round" strokeLinejoin="round"/>
<path d="M372.541 190.734L374.253 204.578" stroke="#990080" strokeWidth="3.45833" strokeLinecap="round" strokeLinejoin="round"/>
<path d="M375.385 213.715L375.603 215.472" stroke="#990080" strokeWidth="3.45833" strokeLinecap="round" strokeLinejoin="round"/>
<path d="M360.125 160.246L363.815 167.467" stroke="#990080" strokeWidth="3.45833" strokeLinecap="round" strokeLinejoin="round"/>
<path d="M355.816 151.809L357.051 154.226" stroke="#990080" strokeWidth="3.45833" strokeLinecap="round" strokeLinejoin="round"/>
<path d="M344.947 157.844L365.31 176.795" stroke="#990080" strokeWidth="3.45833" strokeLinecap="round" strokeLinejoin="round"/>
<path d="M341.43 169.84L352.441 174.502" stroke="#990080" strokeWidth="3.45833" strokeLinecap="round" strokeLinejoin="round"/>
<path d="M347.076 181.324L353.246 181.642" stroke="#990080" strokeWidth="3.45833" strokeLinecap="round" strokeLinejoin="round"/>
<path d="M336.754 180.789L338.843 180.896" stroke="#990080" strokeWidth="3.45833" strokeLinecap="round" strokeLinejoin="round"/>
<path d="M340.658 192.052L364.023 184.883" stroke="#990080" strokeWidth="3.45833" strokeLinecap="round" strokeLinejoin="round"/>
<path d="M342.551 204.466L354.887 195.152" stroke="#990080" strokeWidth="3.45833" strokeLinecap="round" strokeLinejoin="round"/>
<path d="M360.051 200.293L365.387 192.059" stroke="#990080" strokeWidth="3.45833" strokeLinecap="round" strokeLinejoin="round"/>
<path d="M353.662 210.159L354.994 208.102" stroke="#990080" strokeWidth="3.45833" strokeLinecap="round" strokeLinejoin="round"/>
<path d="M363.395 217.972L366.832 203.004" stroke="#990080" strokeWidth="3.45833" strokeLinecap="round" strokeLinejoin="round"/>
<path d="M389.637 190.246L404.971 196.737" stroke="#990080" strokeWidth="3.45833" strokeLinecap="round" strokeLinejoin="round"/>
<path d="M378.762 182.953L388.971 183.479" stroke="#990080" strokeWidth="3.45833" strokeLinecap="round" strokeLinejoin="round"/>
<path d="M398.248 183.957L401.838 184.144" stroke="#990080" strokeWidth="3.45833" strokeLinecap="round" strokeLinejoin="round"/>
<path d="M394.857 175.427L406.246 171.934" stroke="#990080" strokeWidth="3.45833" strokeLinecap="round" strokeLinejoin="round"/>
<path d="M378.93 176.999L400.513 160.703" stroke="#990080" strokeWidth="3.45833" strokeLinecap="round" strokeLinejoin="round"/>
<path d="M382.732 165.295L386.533 159.426" stroke="#990080" strokeWidth="3.45833" strokeLinecap="round" strokeLinejoin="round"/>
<path d="M390.986 152.562L392.259 150.594" stroke="#990080" strokeWidth="3.45833" strokeLinecap="round" strokeLinejoin="round"/>
<path d="M373.723 173.067L379.668 147.195" stroke="#990080" strokeWidth="3.45833" strokeLinecap="round" strokeLinejoin="round"/>
<path d="M218.428 143.395L219.974 155.91" stroke="#E30BCD" strokeWidth="3.45833" strokeLinecap="round" strokeLinejoin="round"/>
<path d="M231.828 194.789L238.108 207.087" stroke="#E30BCD" strokeWidth="3.45833" strokeLinecap="round" strokeLinejoin="round"/>
<path d="M231.301 184.742L249.111 201.318" stroke="#E30BCD" strokeWidth="3.45833" strokeLinecap="round" strokeLinejoin="round"/>
<path d="M223.541 184.734L225.253 198.578" stroke="#E30BCD" strokeWidth="3.45833" strokeLinecap="round" strokeLinejoin="round"/>
<path d="M226.385 207.715L226.603 209.472" stroke="#E30BCD" strokeWidth="3.45833" strokeLinecap="round" strokeLinejoin="round"/>
<path d="M211.125 154.246L214.815 161.467" stroke="#E30BCD" strokeWidth="3.45833" strokeLinecap="round" strokeLinejoin="round"/>
<path d="M206.816 145.809L208.051 148.226" stroke="#E30BCD" strokeWidth="3.45833" strokeLinecap="round" strokeLinejoin="round"/>
<path d="M195.947 151.844L216.31 170.795" stroke="#E30BCD" strokeWidth="3.45833" strokeLinecap="round" strokeLinejoin="round"/>
<path d="M192.43 163.84L203.441 168.502" stroke="#E30BCD" strokeWidth="3.45833" strokeLinecap="round" strokeLinejoin="round"/>
<path d="M198.076 175.324L204.246 175.642" stroke="#E30BCD" strokeWidth="3.45833" strokeLinecap="round" strokeLinejoin="round"/>
<path d="M187.754 174.789L189.843 174.896" stroke="#E30BCD" strokeWidth="3.45833" strokeLinecap="round" strokeLinejoin="round"/>
<path d="M191.658 186.052L215.023 178.883" stroke="#E30BCD" strokeWidth="3.45833" strokeLinecap="round" strokeLinejoin="round"/>
<path d="M193.551 198.466L205.887 189.152" stroke="#E30BCD" strokeWidth="3.45833" strokeLinecap="round" strokeLinejoin="round"/>
<path d="M211.051 194.293L216.387 186.059" stroke="#E30BCD" strokeWidth="3.45833" strokeLinecap="round" strokeLinejoin="round"/>
<path d="M204.662 204.159L205.994 202.102" stroke="#E30BCD" strokeWidth="3.45833" strokeLinecap="round" strokeLinejoin="round"/>
<path d="M214.395 211.972L217.832 197.004" stroke="#E30BCD" strokeWidth="3.45833" strokeLinecap="round" strokeLinejoin="round"/>
<path d="M240.637 184.246L255.971 190.737" stroke="#E30BCD" strokeWidth="3.45833" strokeLinecap="round" strokeLinejoin="round"/>
<path d="M229.762 176.953L239.971 177.479" stroke="#E30BCD" strokeWidth="3.45833" strokeLinecap="round" strokeLinejoin="round"/>
<path d="M249.248 177.957L252.838 178.144" stroke="#E30BCD" strokeWidth="3.45833" strokeLinecap="round" strokeLinejoin="round"/>
<path d="M245.857 169.427L257.246 165.934" stroke="#E30BCD" strokeWidth="3.45833" strokeLinecap="round" strokeLinejoin="round"/>
<path d="M229.93 170.999L251.513 154.703" stroke="#E30BCD" strokeWidth="3.45833" strokeLinecap="round" strokeLinejoin="round"/>
<path d="M233.732 159.295L237.533 153.426" stroke="#E30BCD" strokeWidth="3.45833" strokeLinecap="round" strokeLinejoin="round"/>
<path d="M241.986 146.562L243.259 144.594" stroke="#E30BCD" strokeWidth="3.45833" strokeLinecap="round" strokeLinejoin="round"/>
<path d="M224.723 167.067L230.668 141.195" stroke="#E30BCD" strokeWidth="3.45833" strokeLinecap="round" strokeLinejoin="round"/>
<path d="M295.428 66.3984L296.974 78.9141" stroke="#E30BCD" strokeWidth="3.45833" strokeLinecap="round" strokeLinejoin="round"/>
<path d="M308.828 117.789L315.108 130.087" stroke="#E30BCD" strokeWidth="3.45833" strokeLinecap="round" strokeLinejoin="round"/>
<path d="M308.301 107.742L326.111 124.318" stroke="#E30BCD" strokeWidth="3.45833" strokeLinecap="round" strokeLinejoin="round"/>
<path d="M300.541 107.734L302.253 121.578" stroke="#E30BCD" strokeWidth="3.45833" strokeLinecap="round" strokeLinejoin="round"/>
<path d="M303.385 130.715L303.603 132.472" stroke="#E30BCD" strokeWidth="3.45833" strokeLinecap="round" strokeLinejoin="round"/>
<path d="M288.125 77.2461L291.815 84.4671" stroke="#E30BCD" strokeWidth="3.45833" strokeLinecap="round" strokeLinejoin="round"/>
<path d="M283.816 68.8047L285.051 71.2221" stroke="#E30BCD" strokeWidth="3.45833" strokeLinecap="round" strokeLinejoin="round"/>
<path d="M272.947 74.8438L293.31 93.7954" stroke="#E30BCD" strokeWidth="3.45833" strokeLinecap="round" strokeLinejoin="round"/>
<path d="M269.43 86.8398L280.441 91.5017" stroke="#E30BCD" strokeWidth="3.45833" strokeLinecap="round" strokeLinejoin="round"/>
<path d="M275.076 98.3242L281.246 98.6424" stroke="#E30BCD" strokeWidth="3.45833" strokeLinecap="round" strokeLinejoin="round"/>
<path d="M264.754 97.7891L266.843 97.8963" stroke="#E30BCD" strokeWidth="3.45833" strokeLinecap="round" strokeLinejoin="round"/>
<path d="M268.658 109.052L292.023 101.883" stroke="#E30BCD" strokeWidth="3.45833" strokeLinecap="round" strokeLinejoin="round"/>
<path d="M270.551 121.466L282.887 112.152" stroke="#E30BCD" strokeWidth="3.45833" strokeLinecap="round" strokeLinejoin="round"/>
<path d="M288.051 117.293L293.387 109.059" stroke="#E30BCD" strokeWidth="3.45833" strokeLinecap="round" strokeLinejoin="round"/>
<path d="M281.662 127.159L282.994 125.102" stroke="#E30BCD" strokeWidth="3.45833" strokeLinecap="round" strokeLinejoin="round"/>
<path d="M291.395 134.972L294.832 120.004" stroke="#E30BCD" strokeWidth="3.45833" strokeLinecap="round" strokeLinejoin="round"/>
<path d="M317.637 107.246L332.971 113.737" stroke="#E30BCD" strokeWidth="3.45833" strokeLinecap="round" strokeLinejoin="round"/>
<path d="M306.762 99.9531L316.971 100.479" stroke="#E30BCD" strokeWidth="3.45833" strokeLinecap="round" strokeLinejoin="round"/>
<path d="M326.248 100.957L329.838 101.144" stroke="#E30BCD" strokeWidth="3.45833" strokeLinecap="round" strokeLinejoin="round"/>
<path d="M322.857 92.4265L334.246 88.9336" stroke="#E30BCD" strokeWidth="3.45833" strokeLinecap="round" strokeLinejoin="round"/>
<path d="M306.93 93.9988L328.513 77.7031" stroke="#E30BCD" strokeWidth="3.45833" strokeLinecap="round" strokeLinejoin="round"/>
<path d="M310.732 82.2946L314.533 76.4258" stroke="#E30BCD" strokeWidth="3.45833" strokeLinecap="round" strokeLinejoin="round"/>
<path d="M318.986 69.5615L320.259 67.5938" stroke="#E30BCD" strokeWidth="3.45833" strokeLinecap="round" strokeLinejoin="round"/>
<path d="M301.723 90.0671L307.668 64.1953" stroke="#E30BCD" strokeWidth="3.45833" strokeLinecap="round" strokeLinejoin="round"/>
</svg>
