<svg width="232" height="166" viewBox="0 0 232 166" fill="none" xmlns="http://www.w3.org/2000/svg">
<path d="M172.662 152.157L173.994 150.1" stroke="#990080" stroke-width="3.45833" stroke-linecap="round" stroke-linejoin="round"/>
<path d="M208.637 132.247L223.971 138.738" stroke="#990080" stroke-width="3.45833" stroke-linecap="round" stroke-linejoin="round"/>
<path d="M197.762 124.952L207.971 125.478" stroke="#990080" stroke-width="3.45833" stroke-linecap="round" stroke-linejoin="round"/>
<path d="M197.93 118.999L219.513 102.703" stroke="#990080" stroke-width="3.45833" stroke-linecap="round" stroke-linejoin="round"/>
<path d="M50.8281 136.791L57.1085 149.089" stroke="#E30BCD" stroke-width="3.45833" stroke-linecap="round" stroke-linejoin="round"/>
<path d="M30.125 96.2471L33.815 103.468" stroke="#E30BCD" stroke-width="3.45833" stroke-linecap="round" stroke-linejoin="round"/>
<path d="M17.0762 117.324L23.2458 117.642" stroke="#E30BCD" stroke-width="3.45833" stroke-linecap="round" stroke-linejoin="round"/>
<path d="M30.0508 136.292L35.387 128.058" stroke="#E30BCD" stroke-width="3.45833" stroke-linecap="round" stroke-linejoin="round"/>
<path d="M48.7617 118.952L58.9707 119.478" stroke="#E30BCD" stroke-width="3.45833" stroke-linecap="round" stroke-linejoin="round"/>
<path d="M52.7324 101.296L56.5331 95.4268" stroke="#E30BCD" stroke-width="3.45833" stroke-linecap="round" stroke-linejoin="round"/>
<path d="M114.428 8.39648L115.974 20.9122" stroke="#E30BCD" stroke-width="3.45833" stroke-linecap="round" stroke-linejoin="round"/>
<path d="M119.541 49.7334L121.253 63.5771" stroke="#E30BCD" stroke-width="3.45833" stroke-linecap="round" stroke-linejoin="round"/>
<path d="M107.125 19.2471L110.815 26.4681" stroke="#E30BCD" stroke-width="3.45833" stroke-linecap="round" stroke-linejoin="round"/>
<path d="M102.816 10.8066L104.051 13.224" stroke="#E30BCD" stroke-width="3.45833" stroke-linecap="round" stroke-linejoin="round"/>
<path d="M88.4297 28.8389L99.441 33.5007" stroke="#E30BCD" stroke-width="3.45833" stroke-linecap="round" stroke-linejoin="round"/>
<path d="M94.0762 40.3242L100.246 40.6424" stroke="#E30BCD" stroke-width="3.45833" stroke-linecap="round" stroke-linejoin="round"/>
<path d="M83.7539 39.791L85.8427 39.8982" stroke="#E30BCD" stroke-width="3.45833" stroke-linecap="round" stroke-linejoin="round"/>
<path d="M107.051 59.2919L112.387 51.0576" stroke="#E30BCD" stroke-width="3.45833" stroke-linecap="round" stroke-linejoin="round"/>
<path d="M100.662 69.1573L101.994 67.0996" stroke="#E30BCD" stroke-width="3.45833" stroke-linecap="round" stroke-linejoin="round"/>
<path d="M125.762 41.9521L135.971 42.4778" stroke="#E30BCD" stroke-width="3.45833" stroke-linecap="round" stroke-linejoin="round"/>
<path d="M145.248 42.9561L148.838 43.1428" stroke="#E30BCD" stroke-width="3.45833" stroke-linecap="round" stroke-linejoin="round"/>
<path d="M129.732 24.2955L133.533 18.4268" stroke="#E30BCD" stroke-width="3.45833" stroke-linecap="round" stroke-linejoin="round"/>
<path d="M137.986 11.5635L139.259 9.5957" stroke="#E30BCD" stroke-width="3.45833" stroke-linecap="round" stroke-linejoin="round"/>
</svg>
