<svg width="232" height="166" viewBox="0 0 232 166" fill="none" xmlns="http://www.w3.org/2000/svg">
<path d="M186.428 91.3955L187.974 103.911" stroke="#990080" stroke-width="3.45833" stroke-linecap="round" stroke-linejoin="round"/>
<path d="M199.828 142.791L206.108 155.089" stroke="#990080" stroke-width="3.45833" stroke-linecap="round" stroke-linejoin="round"/>
<path d="M199.301 132.744L217.111 149.32" stroke="#990080" stroke-width="3.45833" stroke-linecap="round" stroke-linejoin="round"/>
<path d="M191.541 132.733L193.253 146.577" stroke="#990080" stroke-width="3.45833" stroke-linecap="round" stroke-linejoin="round"/>
<path d="M194.385 155.716L194.603 157.473" stroke="#990080" stroke-width="3.45833" stroke-linecap="round" stroke-linejoin="round"/>
<path d="M179.125 102.247L182.815 109.468" stroke="#990080" stroke-width="3.45833" stroke-linecap="round" stroke-linejoin="round"/>
<path d="M174.816 93.8076L176.051 96.225" stroke="#990080" stroke-width="3.45833" stroke-linecap="round" stroke-linejoin="round"/>
<path d="M163.947 99.8428L184.31 118.794" stroke="#990080" stroke-width="3.45833" stroke-linecap="round" stroke-linejoin="round"/>
<path d="M160.43 111.839L171.441 116.501" stroke="#990080" stroke-width="3.45833" stroke-linecap="round" stroke-linejoin="round"/>
<path d="M166.076 123.324L172.246 123.642" stroke="#990080" stroke-width="3.45833" stroke-linecap="round" stroke-linejoin="round"/>
<path d="M155.754 122.791L157.843 122.898" stroke="#990080" stroke-width="3.45833" stroke-linecap="round" stroke-linejoin="round"/>
<path d="M159.658 134.054L183.023 126.885" stroke="#990080" stroke-width="3.45833" stroke-linecap="round" stroke-linejoin="round"/>
<path d="M161.551 146.465L173.887 137.151" stroke="#990080" stroke-width="3.45833" stroke-linecap="round" stroke-linejoin="round"/>
<path d="M179.051 142.292L184.387 134.058" stroke="#990080" stroke-width="3.45833" stroke-linecap="round" stroke-linejoin="round"/>
<path d="M172.662 152.157L173.994 150.1" stroke="#990080" stroke-width="3.45833" stroke-linecap="round" stroke-linejoin="round"/>
<path d="M182.395 159.972L185.832 145.004" stroke="#990080" stroke-width="3.45833" stroke-linecap="round" stroke-linejoin="round"/>
<path d="M208.637 132.247L223.971 138.738" stroke="#990080" stroke-width="3.45833" stroke-linecap="round" stroke-linejoin="round"/>
<path d="M197.762 124.952L207.971 125.478" stroke="#990080" stroke-width="3.45833" stroke-linecap="round" stroke-linejoin="round"/>
<path d="M217.248 125.956L220.838 126.143" stroke="#990080" stroke-width="3.45833" stroke-linecap="round" stroke-linejoin="round"/>
<path d="M213.857 117.425L225.246 113.932" stroke="#990080" stroke-width="3.45833" stroke-linecap="round" stroke-linejoin="round"/>
<path d="M197.93 118.999L219.513 102.703" stroke="#990080" stroke-width="3.45833" stroke-linecap="round" stroke-linejoin="round"/>
<path d="M201.732 107.296L205.533 101.427" stroke="#990080" stroke-width="3.45833" stroke-linecap="round" stroke-linejoin="round"/>
<path d="M209.986 94.5625L211.259 92.5947" stroke="#990080" stroke-width="3.45833" stroke-linecap="round" stroke-linejoin="round"/>
<path d="M192.723 115.066L198.668 89.1943" stroke="#990080" stroke-width="3.45833" stroke-linecap="round" stroke-linejoin="round"/>
<path d="M37.4277 85.3955L38.9736 97.9112" stroke="#E30BCD" stroke-width="3.45833" stroke-linecap="round" stroke-linejoin="round"/>
<path d="M50.8281 136.791L57.1085 149.089" stroke="#E30BCD" stroke-width="3.45833" stroke-linecap="round" stroke-linejoin="round"/>
<path d="M50.3008 126.744L68.1112 143.32" stroke="#E30BCD" stroke-width="3.45833" stroke-linecap="round" stroke-linejoin="round"/>
<path d="M42.541 126.733L44.2529 140.577" stroke="#E30BCD" stroke-width="3.45833" stroke-linecap="round" stroke-linejoin="round"/>
<path d="M45.3848 149.716L45.6026 151.473" stroke="#E30BCD" stroke-width="3.45833" stroke-linecap="round" stroke-linejoin="round"/>
<path d="M30.125 96.2471L33.815 103.468" stroke="#E30BCD" stroke-width="3.45833" stroke-linecap="round" stroke-linejoin="round"/>
<path d="M25.8164 87.8076L27.051 90.225" stroke="#E30BCD" stroke-width="3.45833" stroke-linecap="round" stroke-linejoin="round"/>
<path d="M14.9473 93.8428L35.3099 112.794" stroke="#E30BCD" stroke-width="3.45833" stroke-linecap="round" stroke-linejoin="round"/>
<path d="M11.4297 105.839L22.441 110.501" stroke="#E30BCD" stroke-width="3.45833" stroke-linecap="round" stroke-linejoin="round"/>
<path d="M17.0762 117.324L23.2458 117.642" stroke="#E30BCD" stroke-width="3.45833" stroke-linecap="round" stroke-linejoin="round"/>
<path d="M6.75391 116.791L8.84274 116.898" stroke="#E30BCD" stroke-width="3.45833" stroke-linecap="round" stroke-linejoin="round"/>
<path d="M10.6582 128.054L34.0227 120.885" stroke="#E30BCD" stroke-width="3.45833" stroke-linecap="round" stroke-linejoin="round"/>
<path d="M12.5508 140.465L24.8867 131.151" stroke="#E30BCD" stroke-width="3.45833" stroke-linecap="round" stroke-linejoin="round"/>
<path d="M30.0508 136.292L35.387 128.058" stroke="#E30BCD" stroke-width="3.45833" stroke-linecap="round" stroke-linejoin="round"/>
<path d="M23.6621 146.157L24.9936 144.1" stroke="#E30BCD" stroke-width="3.45833" stroke-linecap="round" stroke-linejoin="round"/>
<path d="M33.3945 153.972L36.8321 139.004" stroke="#E30BCD" stroke-width="3.45833" stroke-linecap="round" stroke-linejoin="round"/>
<path d="M59.6367 126.247L74.971 132.738" stroke="#E30BCD" stroke-width="3.45833" stroke-linecap="round" stroke-linejoin="round"/>
<path d="M48.7617 118.952L58.9707 119.478" stroke="#E30BCD" stroke-width="3.45833" stroke-linecap="round" stroke-linejoin="round"/>
<path d="M68.248 119.956L71.8378 120.143" stroke="#E30BCD" stroke-width="3.45833" stroke-linecap="round" stroke-linejoin="round"/>
<path d="M64.8574 111.425L76.2457 107.932" stroke="#E30BCD" stroke-width="3.45833" stroke-linecap="round" stroke-linejoin="round"/>
<path d="M48.9297 112.999L70.5131 96.7031" stroke="#E30BCD" stroke-width="3.45833" stroke-linecap="round" stroke-linejoin="round"/>
<path d="M52.7324 101.296L56.5331 95.4268" stroke="#E30BCD" stroke-width="3.45833" stroke-linecap="round" stroke-linejoin="round"/>
<path d="M60.9863 88.5625L62.259 86.5947" stroke="#E30BCD" stroke-width="3.45833" stroke-linecap="round" stroke-linejoin="round"/>
<path d="M43.7227 109.066L49.6675 83.1943" stroke="#E30BCD" stroke-width="3.45833" stroke-linecap="round" stroke-linejoin="round"/>
<path d="M114.428 8.39648L115.974 20.9122" stroke="#E30BCD" stroke-width="3.45833" stroke-linecap="round" stroke-linejoin="round"/>
<path d="M127.828 59.791L134.108 72.0888" stroke="#E30BCD" stroke-width="3.45833" stroke-linecap="round" stroke-linejoin="round"/>
<path d="M127.301 49.7441L145.111 66.3199" stroke="#E30BCD" stroke-width="3.45833" stroke-linecap="round" stroke-linejoin="round"/>
<path d="M119.541 49.7334L121.253 63.5771" stroke="#E30BCD" stroke-width="3.45833" stroke-linecap="round" stroke-linejoin="round"/>
<path d="M122.385 72.7158L122.603 74.4727" stroke="#E30BCD" stroke-width="3.45833" stroke-linecap="round" stroke-linejoin="round"/>
<path d="M107.125 19.2471L110.815 26.4681" stroke="#E30BCD" stroke-width="3.45833" stroke-linecap="round" stroke-linejoin="round"/>
<path d="M102.816 10.8066L104.051 13.224" stroke="#E30BCD" stroke-width="3.45833" stroke-linecap="round" stroke-linejoin="round"/>
<path d="M91.9473 16.8428L112.31 35.7944" stroke="#E30BCD" stroke-width="3.45833" stroke-linecap="round" stroke-linejoin="round"/>
<path d="M88.4297 28.8389L99.441 33.5007" stroke="#E30BCD" stroke-width="3.45833" stroke-linecap="round" stroke-linejoin="round"/>
<path d="M94.0762 40.3242L100.246 40.6424" stroke="#E30BCD" stroke-width="3.45833" stroke-linecap="round" stroke-linejoin="round"/>
<path d="M83.7539 39.791L85.8427 39.8982" stroke="#E30BCD" stroke-width="3.45833" stroke-linecap="round" stroke-linejoin="round"/>
<path d="M87.6582 51.0539L111.023 43.8848" stroke="#E30BCD" stroke-width="3.45833" stroke-linecap="round" stroke-linejoin="round"/>
<path d="M89.5508 63.4647L101.887 54.1514" stroke="#E30BCD" stroke-width="3.45833" stroke-linecap="round" stroke-linejoin="round"/>
<path d="M107.051 59.2919L112.387 51.0576" stroke="#E30BCD" stroke-width="3.45833" stroke-linecap="round" stroke-linejoin="round"/>
<path d="M100.662 69.1573L101.994 67.0996" stroke="#E30BCD" stroke-width="3.45833" stroke-linecap="round" stroke-linejoin="round"/>
<path d="M110.395 76.9716L113.832 62.0039" stroke="#E30BCD" stroke-width="3.45833" stroke-linecap="round" stroke-linejoin="round"/>
<path d="M136.637 49.2471L151.971 55.7384" stroke="#E30BCD" stroke-width="3.45833" stroke-linecap="round" stroke-linejoin="round"/>
<path d="M125.762 41.9521L135.971 42.4778" stroke="#E30BCD" stroke-width="3.45833" stroke-linecap="round" stroke-linejoin="round"/>
<path d="M145.248 42.9561L148.838 43.1428" stroke="#E30BCD" stroke-width="3.45833" stroke-linecap="round" stroke-linejoin="round"/>
<path d="M141.857 34.4254L153.246 30.9325" stroke="#E30BCD" stroke-width="3.45833" stroke-linecap="round" stroke-linejoin="round"/>
<path d="M125.93 35.9988L147.513 19.7031" stroke="#E30BCD" stroke-width="3.45833" stroke-linecap="round" stroke-linejoin="round"/>
<path d="M129.732 24.2955L133.533 18.4268" stroke="#E30BCD" stroke-width="3.45833" stroke-linecap="round" stroke-linejoin="round"/>
<path d="M137.986 11.5635L139.259 9.5957" stroke="#E30BCD" stroke-width="3.45833" stroke-linecap="round" stroke-linejoin="round"/>
<path d="M120.723 32.0652L126.668 6.19336" stroke="#E30BCD" stroke-width="3.45833" stroke-linecap="round" stroke-linejoin="round"/>
</svg>
